<svg xmlns="http://www.w3.org/2000/svg" width="106.048" height="106.048" viewBox="0 0 106.048 106.048"><g transform="translate(75.393 23.198)"><path d="M384.3,112h-9.942A10.368,10.368,0,0,0,364,122.356v62.137a10.368,10.368,0,0,0,10.356,10.356H384.3a10.368,10.368,0,0,0,10.356-10.356V122.356A10.368,10.368,0,0,0,384.3,112Zm2.071,72.494a2.074,2.074,0,0,1-2.071,2.071h-9.942a2.074,2.074,0,0,1-2.071-2.071V122.356a2.074,2.074,0,0,1,2.071-2.071H384.3a2.074,2.074,0,0,1,2.071,2.071Z" transform="translate(-364 -112)" fill="#ffb612"/></g><g transform="translate(0 54.681)"><path d="M20.3,264H10.356A10.368,10.368,0,0,0,0,274.356v30.654a10.368,10.368,0,0,0,10.356,10.356H20.3a10.368,10.368,0,0,0,10.356-10.356V274.356A10.368,10.368,0,0,0,20.3,264Zm2.071,41.011a2.074,2.074,0,0,1-2.071,2.071H10.356a2.074,2.074,0,0,1-2.071-2.071V274.356a2.074,2.074,0,0,1,2.071-2.071H20.3a2.074,2.074,0,0,1,2.071,2.071Z" transform="translate(0 -264)" fill="#de3831"/></g><g transform="translate(37.697)"><path d="M202.3,0h-9.942A10.368,10.368,0,0,0,182,10.356V95.692a10.368,10.368,0,0,0,10.356,10.356H202.3a10.368,10.368,0,0,0,10.356-10.356V10.356A10.368,10.368,0,0,0,202.3,0Zm2.071,95.692a2.074,2.074,0,0,1-2.071,2.071h-9.942a2.074,2.074,0,0,1-2.071-2.071V10.356a2.074,2.074,0,0,1,2.071-2.071H202.3a2.074,2.074,0,0,1,2.071,2.071Z" transform="translate(-182)" fill="#fff"/></g></svg>