<svg xmlns="http://www.w3.org/2000/svg" xmlns:xlink="http://www.w3.org/1999/xlink" width="614.496" height="541.283" viewBox="0 0 614.496 541.283"><defs><filter id="a" x="230.279" y="321.018" width="285.079" height="192.897" filterUnits="userSpaceOnUse"><feOffset input="SourceAlpha"/><feGaussianBlur stdDeviation="1.5" result="b"/><feFlood flood-opacity="0.102"/><feComposite operator="in" in2="b"/><feComposite in="SourceGraphic"/></filter><filter id="c" x="289.59" y="182.77" width="210.321" height="178.059" filterUnits="userSpaceOnUse"><feOffset input="SourceAlpha"/><feGaussianBlur stdDeviation="1.5" result="d"/><feFlood flood-opacity="0.102"/><feComposite operator="in" in2="d"/><feComposite in="SourceGraphic"/></filter><filter id="e" x="393.567" y="120.598" width="79.676" height="82.396" filterUnits="userSpaceOnUse"><feOffset input="SourceAlpha"/><feGaussianBlur stdDeviation="1.5" result="f"/><feFlood flood-opacity="0.102"/><feComposite operator="in" in2="f"/><feComposite in="SourceGraphic"/></filter><filter id="g" x="365.349" y="0" width="212.059" height="138.269" filterUnits="userSpaceOnUse"><feOffset input="SourceAlpha"/><feGaussianBlur stdDeviation="1.5" result="h"/><feFlood flood-opacity="0.102"/><feComposite operator="in" in2="h"/><feComposite in="SourceGraphic"/></filter><filter id="i" x="434.778" y="72.538" width="148.087" height="154.844" filterUnits="userSpaceOnUse"><feOffset input="SourceAlpha"/><feGaussianBlur stdDeviation="1.5" result="j"/><feFlood flood-opacity="0.102"/><feComposite operator="in" in2="j"/><feComposite in="SourceGraphic"/></filter><filter id="k" x="0" y="108.41" width="343.511" height="351.524" filterUnits="userSpaceOnUse"><feOffset dy="3" input="SourceAlpha"/><feGaussianBlur stdDeviation="1.5" result="l"/><feFlood flood-opacity="0.102"/><feComposite operator="in" in2="l"/><feComposite in="SourceGraphic"/></filter><filter id="m" x="451.87" y="186.202" width="162.626" height="189.099" filterUnits="userSpaceOnUse"><feOffset input="SourceAlpha"/><feGaussianBlur stdDeviation="1.5" result="n"/><feFlood flood-opacity="0.102"/><feComposite operator="in" in2="n"/><feComposite in="SourceGraphic"/></filter><filter id="o" x="223.748" y="100.049" width="218.517" height="151.796" filterUnits="userSpaceOnUse"><feOffset input="SourceAlpha"/><feGaussianBlur stdDeviation="1.5" result="p"/><feFlood flood-opacity="0.102"/><feComposite operator="in" in2="p"/><feComposite in="SourceGraphic"/></filter><filter id="q" x="46.358" y="339.392" width="248.413" height="201.892" filterUnits="userSpaceOnUse"><feOffset input="SourceAlpha"/><feGaussianBlur stdDeviation="1.5" result="r"/><feFlood flood-opacity="0.102"/><feComposite operator="in" in2="r"/><feComposite in="SourceGraphic"/></filter><filter id="s" x="406.86" y="149.338" width="43.364" height="43.364" filterUnits="userSpaceOnUse"><feOffset input="SourceAlpha"/><feGaussianBlur stdDeviation="2.5" result="t"/><feFlood flood-color="#fff" flood-opacity="0.161"/><feComposite operator="in" in2="t"/><feComposite in="SourceGraphic"/></filter><filter id="u" x="383" y="125.591" width="91" height="91" filterUnits="userSpaceOnUse"><feOffset input="SourceAlpha"/><feGaussianBlur stdDeviation="12.5" result="v"/><feFlood flood-opacity="0.161"/><feComposite operator="in" in2="v"/><feComposite in="SourceGraphic"/></filter><filter id="w" x="83.86" y="430.338" width="103.364" height="103.364" filterUnits="userSpaceOnUse"><feOffset input="SourceAlpha"/><feGaussianBlur stdDeviation="12.5" result="x"/><feFlood flood-color="#fff" flood-opacity="0.161"/><feComposite operator="in" in2="x"/><feComposite in="SourceGraphic"/></filter><filter id="y" x="88" y="436.591" width="95" height="91" filterUnits="userSpaceOnUse"><feOffset input="SourceAlpha"/><feGaussianBlur stdDeviation="12.5" result="z"/><feFlood flood-opacity="0.161"/><feComposite operator="in" in2="z"/><feComposite in="SourceGraphic"/></filter><filter id="aa" x="320.86" y="369.338" width="103.364" height="103.364" filterUnits="userSpaceOnUse"><feOffset input="SourceAlpha"/><feGaussianBlur stdDeviation="12.5" result="ab"/><feFlood flood-color="#fff" flood-opacity="0.161"/><feComposite operator="in" in2="ab"/><feComposite in="SourceGraphic"/></filter><filter id="ac" x="327" y="375.591" width="91" height="91" filterUnits="userSpaceOnUse"><feOffset input="SourceAlpha"/><feGaussianBlur stdDeviation="12.5" result="ad"/><feFlood flood-opacity="0.161"/><feComposite operator="in" in2="ad"/><feComposite in="SourceGraphic"/></filter><filter id="ae" x="287.86" y="132.338" width="103.364" height="103.364" filterUnits="userSpaceOnUse"><feOffset input="SourceAlpha"/><feGaussianBlur stdDeviation="12.5" result="af"/><feFlood flood-color="#fff" flood-opacity="0.161"/><feComposite operator="in" in2="af"/><feComposite in="SourceGraphic"/></filter><filter id="ag" x="292" y="138.591" width="95" height="91" filterUnits="userSpaceOnUse"><feOffset input="SourceAlpha"/><feGaussianBlur stdDeviation="12.5" result="ah"/><feFlood flood-opacity="0.161"/><feComposite operator="in" in2="ah"/><feComposite in="SourceGraphic"/></filter><filter id="ai" x="147.86" y="268.338" width="103.364" height="103.364" filterUnits="userSpaceOnUse"><feOffset input="SourceAlpha"/><feGaussianBlur stdDeviation="12.5" result="aj"/><feFlood flood-color="#fff" flood-opacity="0.161"/><feComposite operator="in" in2="aj"/><feComposite in="SourceGraphic"/></filter><filter id="ak" x="153" y="274.591" width="93" height="91" filterUnits="userSpaceOnUse"><feOffset input="SourceAlpha"/><feGaussianBlur stdDeviation="12.5" result="al"/><feFlood flood-opacity="0.161"/><feComposite operator="in" in2="al"/><feComposite in="SourceGraphic"/></filter><filter id="am" x="450.86" y="110.338" width="103.364" height="103.364" filterUnits="userSpaceOnUse"><feOffset input="SourceAlpha"/><feGaussianBlur stdDeviation="12.5" result="an"/><feFlood flood-color="#fff" flood-opacity="0.161"/><feComposite operator="in" in2="an"/><feComposite in="SourceGraphic"/></filter><filter id="ao" x="455" y="116.591" width="95" height="91" filterUnits="userSpaceOnUse"><feOffset input="SourceAlpha"/><feGaussianBlur stdDeviation="12.5" result="ap"/><feFlood flood-opacity="0.161"/><feComposite operator="in" in2="ap"/><feComposite in="SourceGraphic"/></filter><filter id="aq" x="423.86" y="12.338" width="103.364" height="103.364" filterUnits="userSpaceOnUse"><feOffset input="SourceAlpha"/><feGaussianBlur stdDeviation="12.5" result="ar"/><feFlood flood-color="#fff" flood-opacity="0.161"/><feComposite operator="in" in2="ar"/><feComposite in="SourceGraphic"/></filter><filter id="as" x="430" y="18.591" width="91" height="91" filterUnits="userSpaceOnUse"><feOffset input="SourceAlpha"/><feGaussianBlur stdDeviation="12.5" result="at"/><feFlood flood-opacity="0.161"/><feComposite operator="in" in2="at"/><feComposite in="SourceGraphic"/></filter><filter id="au" x="462.86" y="222.338" width="103.364" height="103.364" filterUnits="userSpaceOnUse"><feOffset input="SourceAlpha"/><feGaussianBlur stdDeviation="12.5" result="av"/><feFlood flood-color="#fff" flood-opacity="0.161"/><feComposite operator="in" in2="av"/><feComposite in="SourceGraphic"/></filter><filter id="aw" x="465" y="228.591" width="99" height="91" filterUnits="userSpaceOnUse"><feOffset input="SourceAlpha"/><feGaussianBlur stdDeviation="12.5" result="ax"/><feFlood flood-opacity="0.161"/><feComposite operator="in" in2="ax"/><feComposite in="SourceGraphic"/></filter><filter id="ay" x="333.86" y="204.338" width="103.364" height="103.364" filterUnits="userSpaceOnUse"><feOffset input="SourceAlpha"/><feGaussianBlur stdDeviation="12.5" result="az"/><feFlood flood-color="#fff" flood-opacity="0.161"/><feComposite operator="in" in2="az"/><feComposite in="SourceGraphic"/></filter><filter id="ba" x="340" y="210.591" width="91" height="91" filterUnits="userSpaceOnUse"><feOffset input="SourceAlpha"/><feGaussianBlur stdDeviation="12.5" result="bb"/><feFlood flood-opacity="0.161"/><feComposite operator="in" in2="bb"/><feComposite in="SourceGraphic"/></filter></defs><g transform="translate(4.211 4.795)"><path d="M288.15,257.893l.355-.553-.61-.4.241-.553-.794-.482v-2.113l1.517-2.95-.5-.383-2.468.355-.851-3.46-2.709-2.666-4.24-10.551-3.475-4.609.142-1.447,1.262.823.411-1.475.525.482.979-.5.454-1.092,1.149-.6,1.659.255.95-.922.681.355.865-.936,1.447-.028.043-1.4,1.971-.681.028-.865,1.361-1.8.851-.269-.6-1.631,1.135-.071.17-1.5,1.049-.794-.553-.865,1.4-.113,1.645-1.418.085-.567-.61-.383-.1-.61,2.283-2.184,1.049-.255-.1-1.191,1.574-.922.113-.922-.553-.355,1.276-.156-1.22-1.262,1.149-.014.071-.667.567-.4-.213-.681,1.39-.071-.4-.454.468-.581-.085-.851.482-.6.737.014.4-.794-.6-1.021,1.872.78.667-.1.355-.6,2,.61.553-.383-.2-.922.61-.142.936-1.177.979.227.482.893,2.028-.057-.1-.808.865-.567.085-1.276.851-.241,1.418-2.695,2.51-2.2.681.624,1.447-.482,1.716.567.865-.454,1.673.043.383-.269-.043-1.078,1.532-1.943,1.957-.652,4.439-.028,2.439-1.276,1.688,1.163.737,3.233,3.205,1.021.808,2.34,1.475.043h0l1.73,1.517,1.744,3.375,1.347,1.574,1.049-.2,1.645,1.092.3,1.546,2.156.709.979.922,2,.808.3,1.135,1.206,1.319,1.12-.482,1.588.511.454.752-.17,1.532,1.829,2.212.652,2.1,1.3,1.7-.128,1.489.851,1.007-1.361,3.546-2.964,1.078-.5.936-1.049.454-.028,3.12.993.681-1.376.5.014,1.645-2.014.355-1.092.893-1.007.213-.2,1.347-1.021.908.241,1.376-.964,3.787.964.964.667,2.113-.184.511-1.517.4-.468,1.163-.879-.241-2.255,1.7h0l-6.708,4.084-2.269.737-1.418-.043-2.354,1.149-2.156-.057-2.581-.794-1.276,1.12-1.447.454-2.368-.6-.667.241-.979.865-.383,1.532L322,255.184l-2.68.454-.78,1.021,1.489,1.56.624,1.56-1.447,2.113-1.532.652-1.631,1.4,1.149,1.461-.581.964-.284,1.8-1.716,1.7.1,2.978-1.007-.823-1.56.44-4.482-.823-1.078-1.829-1.135.567-4.283-.709-2.354-3.177-2.439-1.574-.284-1.418-.95-.269-1.007-2.453-1.9-.553-.936-1.3-.241-1.3-2.609.893-.369-.057Z" transform="translate(114.725 77.041)" fill="none"/><g transform="matrix(1, 0, 0, 1, -4.21, -4.8)" filter="url(#a)"><path d="M394.962,226.725l1.886,2.425,1.447.908.028,1.56-1.659,2.17-1.418-.156-2.014,1.205.511,1.3-1.4.879-.5,1.361-1.7-.454-.993,2.6-3.177-1.291-1.3,3.177,1.177,2.255-.908,1.744.709,1.588,1.688.269,1.517,2.3,3.29.667.709-.1.425-2.751.78-.3,2.822,1.39-.1,2.241L403.3,253.4l2.524,1.248.709-.128.511-.695h2.227l1.915-.851,2.766,1.943,1.319.355.893.922,2.17-.44.553.61,2.411.6.369.539.539-.823,1.262.1.525,1.418,1.759.808.539.667.964.511,1.262-.482-.014,1.064.851.34.34,1.177,1.021-.269.5.709,1.517.142.482,1.815.964.085.908.922.269.837L435,267.626l.737.709-.17,1.319,1.106.695.411,1.688.823.667h0l-5.843,7.984-6.424,6.467-.993.709-2.922.709-1.3,1.3-1.447,2.368-1.744,1.191-.269.78-2.78,1.858-.284.823-1.886,1.22-2.553.893-1.092,1.929-1.376,1.035-.213,1.815-1.007.269-2.326,3.3-.567.142-1.035,2.283-1.163.539-1.773,1.759-.269,1.049-1.574,1.985.085.624L394.4,317.83l-.6,1.376-1.915,1.9-.2.723-4.623,4.326.014.355-1.432.837-1.205,2.085-3.219,2.695-.411,1.064-1.588.78.014.581-1.8,1.6-.014.908-1.007.425-.6.993-2.808,1.135-.2.652-1.985,1.915-.014.667-1.049.057-2.879,2.34-4.3,1.744-1.234,1.361-.3,1.872-1.12,1.376.156.3-4.311,2.709-.737,1.205-.667.184-.794,1.546-4.524,2.723-1.929.638-1.092,1.5-1.361.78-1.943,1.957-3.007,1.7-4.326,3.744-6.268,4.013-1.007,1.3-1.73.482-1.971,2.269-2.283.667-1.645,1.432-2.553.425-2.666,2.1-4.567,1.064-7.148,4.326-2.936.964-3.163-.61-3.049.213-4.084-1.673L286.1,386.7l-4.708.128-3.9.695-2.1.922-3.035,2.1-1.276,1.262-1.177,2.071-.723,3.489,2.184,1.588,1.007,1.971-1.39-.113-1.078.908-2,.128-4.07-.908-2.255.213-3.73-1.8-3.205-.993-3.276-.326-3.588.326-2.3.78-1.39,1.064-.383,3.035-2.071,1.886-1.163,1.985,1.361,1.191-1.035.014-.326.964-3.616-1.376-1.418.241-1.971-.893-1.007.184-.241.709-3.872-.893-1.078-.4-3.418-2.609-2.581-.071-5.956-2.156-12.948-1.844-5.815-1.3h0l-.44-1.957,2.184-2.893-5.219-1.957-.128-2.042-1.744-.255-1.049.936L186.53,390l1.645-1.447.057-1.532,3.9-1.475.823-1.4,1.035.667,2.978-.312.2-1.688-2.652-2.34-.3-3.319-3.134-1.574-.355-.808-5.758-.113-1.149-1.829-6.453-.213-2.255.482-.61-.567-5.233,1.362-5.432-.567-.709-1.262-.1-2.227,1.333-.227,2.255-4.169.709-.326,1.361-3.375,2.056-2,.284-2.2-1.035-1.177,1.291-1.177-.482-1.957,2-1.872.383-1.035,2.765.085.5-.794-1.092-3.886,2.283,3.078,2.014-2.269,3.063.44,3.758,1.177.255-2.524-1.333-.709-.454-2.4-2.695-1.844,1.021-.3.638-.723-.95-4.212-1.588-1.064.255-2.113-.865-1.574,3.829-1.971.482-1.078,2.4,1.064,1.56-2.2,7.857.227.44-.851-.979-1.092.823-2.312,3.007-1.73.6-.808,2.156,1.191.638,1.5,1.673.312,5.7-3.092-.17-1.064,1.773.241,1.659-1.347.014-1.376-1.12-.1-.128-1.588,1.432-.113-.028-1.049-.766-.425.638-.979,1.56.369,1.631-2.439-.823-.667.355-.468-1.475-1.12-2,.355,1.035-2.51.908.113-.2-1.22.78-.028-.709-1.234h0l-.383-1.6.567-.709,3.928,1.39,1.8-1.759v-.709l7.077-.269.553-5.276-.355-1.248.695-2.454-.312-.425,1.517-.752.085-2.865,2.822-.4,2,.652,3.389-.525,1.3-1.617,1.291.709.142-1.929,2.865-.737,1.418-1.517,2.978.014,5.928-3.248,4.964,1.12,1.078-.723-.014-2.354.681-.667.993-.028,1.361-2.2-.837-1.035,1.049-.128.851-1.6-.652-1.191,1.929-2.283-.269-1.9-1.588-1.39.5-.879,1.177-.468.936-1.773-2.652-.34-.553-7.318h0l5.162-.581.567.312.553,2.1,2.652.993,1.7.1,4.453-2.893.085-2.4.823-.652,1.915,1.106,1.56-1.376,2.567-.964.766-.014,1.3,1.007.737.014.454-.652-.369-1.035.78-.34,1.049.425.752,1.3,1.744.6,1.021,1.617,2.383.227,1.3-.752,2.113-.213,1.376,1.205.156,1.744,2.609,1.177,3.148.2-.2.851,1.333-.737,1.12.511,1.021-.752.766.113,2.1-.865,1.759,1.489.61-.284.128-.61,2.241.014.34-1.844,1.007-.752,2.283-.1-.057-.908-1.106-.936.128-.624,2.808-.468,1.22.823.695-.525v-1.447l1.815.312,1.3-1.049.3.284.723-.34.553.638,1.546-.241.482-.979-.95-.5.014-.667,1.56.284.936-.255-.014-.454-1.191-.567.128-.893,1.957.043.681-.78-.284-.78-.936.085-.567-1.447,1.673-.34h0l-.071.567.369.057,2.609-.893.241,1.3.936,1.291,1.9.553,1.007,2.453.95.269.3,1.418,2.439,1.574,2.354,3.177,4.269.709,1.135-.581,1.064,1.844,4.482.823,1.56-.44,1.007.823-.085-2.964,1.716-1.7.284-1.8.581-.964-1.149-1.461,1.631-1.39,1.532-.652,1.447-2.113-.624-1.56-1.489-1.574.78-1.021,2.68-.454,1.673-2.113.383-1.532.979-.851.667-.241,2.368.61,1.447-.454,1.276-1.12,2.581.78,2.142.057,2.354-1.149,1.418.043,2.269-.737,6.694-4.2Z" transform="translate(72.27 99.49)" fill="#20254b" stroke="#20254b" stroke-width="1" opacity="0.8"/></g><g transform="matrix(1, 0, 0, 1, -4.21, -4.8)" filter="url(#c)"><path d="M322.561,133.357l1.248-.454-.028-.95,1.929-.369.369.2.142,1.064,3.007-.184,1.517.964.794-1.461,3.531-.581,1.7-1.985,1.262-.454,1.191.794-.3,1.588,1.22,2.51,1.7,1.7,1.73.808.908,1.943,1.092-1.673,1.078,1.787.95.1,1.291-.652,1.276.993h0l1.39.851,2.567-.085,1.163,2.283,1.276-1.007.837-.043,1.361,1.787,1.276.638-.78,1.532,2.6-1.957,1.56-.085.085-.794-1.376-.184,1.163-1.12,2.2.808,4.141,2.609,1.319-.213,1.106.581.709-1.22,2.439-.964.922.142,1.092,1.177,1.049-.128.255,1.943,2.014,3.446,1.5-.737,2.014.1,1.418,1.447,1.205.17.61.837,1.078.014.454.411-.156,1.163,2.241-.511,1.73,1.078.624.823.241,1.517.723.44-.2.794,2.411,2.1-.425.865,1.546,1.3,1.418,2.624.922.184.78-.652,1.149-.057.028-1.049.723-.723,2.141.057h0l-2.184.979.454.411-.383,1.4,1.957.865.525,2.056-3.616,2.68v.766l.908,1.716-.2,2.539.78,1.489-2.127,4.084.043,2.453-1.135,1.163-.44,1.517.213,1.177,1.546,1.631-.142,2.425-1.673,1.205-.865,2.212-3.716.581-2.992,3.886-2.6,1.191-1.546,1.9-2.709.695-1.376,1.787.383,1.56-.3.553-1.418-.028-.723.709-2.3-.284-3.744,1.22-1.5,1.645.028,1.645-1.276,1.064-1.078,3.333h0l-1.475-.043-.808-2.34-3.205-1.021-.737-3.233-1.688-1.163-2.439,1.276-4.439.028-1.957.652-1.532,1.943.043,1.078-.383.269-1.673-.043-.865.454-1.716-.567-1.447.482-.681-.624-2.51,2.2-1.418,2.695-.851.241-.085,1.276-.865.567.1.808-2.028.057-.482-.893-.979-.227-.936,1.177-.61.142.2.922-.553.383-2-.61-.355.6-.667.1-1.872-.78.6,1.021-.4.794-.737-.014-.482.6.085.851-.468.581.4.454-1.39.071.213.681-.567.4-.071.667-1.149.014,1.22,1.262-1.276.156.553.355-.113.922L325.44,231l.1,1.191-1.049.255-2.283,2.184.1.61.61.383-.085.567-1.645,1.418-1.4.113.553.865-1.049.794-.17,1.5-1.135.071.6,1.631-.851.269-1.361,1.8-.028.865-1.971.681-.043,1.4-1.447.028-.865.936-.681-.355-.95.922-1.659-.255-1.149.6-.454,1.092-.979.5-.525-.482-.411,1.475-1.262-.823-.142,1.447,3.475,4.609,4.24,10.551,2.709,2.666.851,3.46,2.468-.355.5.383-1.517,2.95v2.113l.794.482-.241.553.61.4-.355.553h0l-1.688.355.581,1.447.922-.085.284.78-.681.78-1.957-.043-.128.893,1.191.567v.468l-.922.255-1.56-.284-.014.681.95.5-.482.979-1.546.241-.553-.638-.723.34-.3-.284-1.291,1.049-1.829-.3V290.2l-.695.525-1.22-.837-2.808.482-.128.624,1.106.936.043.908-2.283.1-1.021.766-.326,1.844-2.241-.014-.142.61-.61.284-1.759-1.489-2.1.865-.766-.1-1.021.752-1.12-.511-1.333.737.184-.851-3.148-.2-2.609-1.191-.142-1.744-1.376-1.205-2.113.213-1.3.752-2.383-.227-1.035-1.617-1.744-.581-.737-1.3L271.7,288.3l-.78.34.369,1.035-.454.652-.737-.014-1.3-.993h-.78l-2.553.979-1.574,1.361-1.915-1.106-.823.652-.085,2.4-4.453,2.893-1.7-.085-2.666-.993-.553-2.1L251.14,293l-5.162.567h0l-2.822-2.439-3.29-.255-1.361-2.156-3.077-1.9-1.39-2.411-1.872-1.064L230.7,281.9l-.553-2.1-1.617-.709-1.716-2.964-1.759-1.149-2.468-4.567-1.064-3.021-4.255-1.191-1.035-3.035-2.34-.581-1.73-2.368-1.929-.4-.61-1.135-.865.184-.823-.355-2.836-4.127-.255-1.56L224.8,210.294l-1.943-.709.893-4.85-.369-.695,1.716-1.929,1.177-5.176-.652-.071-.78-1.716,1.376-.1.284-.964,1.092-.213,1.929-5.148-.993-1.716h0l3.092-.837.34-1.092.964-1.035-.3-1.135,1.22-1.929,1.631-.269,2.4-2.184.369-.794-.44-.709,1.049-1.461,2.765-.681.624-1.092,2.113-1.617,3.077-1.234,1.574.128,1.333-1.234,2.851.553.737-1.262,4.581-2.609.908-.128,1.418,1.716,2.2-.113,2.666.723.808,3.248.525.326,1.319-.34.142-.681-.695-1.3,1.135-2.34,4.283-4.141,1.092-.3-.043-1.5,1.333-1.844,1.276-.4,1.064.525,1.007-1.347,2.411.383,1.021-.411,1.829.425.667-.213-2.468-1.517.411-1.234,1.163-.44-.014-2.127-2.468-2.652-.468-1.447.454-.411,1.291.128.865-.851.5.085,1.092-1.73,2.056.255.071-2.212,1.517-1.631,1.588-.355.553.865.44-.1.369-1.3,1.333-1.22,2.085-1.092.808.5,1.347-1.248,2.056,1.915.34-.553-.17-2.6.553-.581.511.043.922,1.645,2.468.922,2.212-.34,1.8.326.709-.44.525.61-.284,1.064.4.156.993-.4,2.808-3.687,1.205-.766,3.12,2.836.482-.043.922-1.064,1.177-.269,1.532-2.411.014-1.929Z" transform="translate(89.76 58.68)" fill="#20254b" stroke="#20254b" stroke-width="1" opacity="0.3"/></g><g transform="matrix(1, 0, 0, 1, -4.21, -4.8)" filter="url(#e)"><path d="M331.139,85.877l5.276-.581,1.049,2.794-2.411,2-2.34.255-.3,6.212-.766,1.248L332.3,98.9l-.879,1.39,1.985,7.091,5.715.511,4.028-4.879,3.659-.993.879,3.092-3.489,1.4-.411,1.447.979,1.177-1.744,3.248.511.4-.227,1.744-2.34-.4-1.3,6.907-2.156-.1-.624.326-.624-1.205-.255.369-1.5-.043-3.007-.78-1.376,1.248-.539,2.312-1.461-.468-.213.553-.581-.184-1.631.61.581,1.985,1.333,1.021.255,3.092,3.46,1.12.113,2.581.993.142.2.638,1.4.851,2.6-1.12,2.34-.241,1.6,3.319-4.113,2.014-.085,2.439-4.567.34-.326,1.234-2.383-.34-1.56,1.205-.014,1.291-1.418.1-.17,1.588-1.645.142-.184.638-1.532.284-.752,2.624.709.326.284,1.092-1.985.667.014.61-1.205.369-.014,1.432.766.454-.908,1.815h0l-1.276-.993-1.291.652-.95-.1-1.078-1.787-1.092,1.673-.908-1.943-1.73-.808-1.7-1.7-1.22-2.51.3-1.588-1.191-.794-1.262.454-1.7,1.985-3.531.581-.794,1.461L298.534,151l-3.007.184-.142-1.064-.369-.2-1.929.369.028.95-1.248.454h0l1.064-5.886-1.276-1.6.851-.2.723-3.432.369-.1.525-1.688-3.517.128-.44-1.22-.667-.539-5.162,1.149.34,1.049-4.864,1.872-.014-1.915-1.56-2.879,2.2-2.085,2.921-1.943-1.291-5.616,2.439.284.113-1.546,2.127-.312,1.759-7.318-.085-2.808,6.41-3.475.425,1.659,1.248,1.73L298.392,114l.142,1.617,3.12-1.035,2.921-.383V113.4l1.688.184.014-.865.964-.61-.581-2.141,1.064-.383-1.645-4.155,2.95-.454,1.078-.709.482-1.475,1.645-1.177-1.248-5.46,1.631-.652,1.163.2.014.567-.979.326.34,1.22.808-.014.766-.78,1.957.128,2.964-.922V92.316h0l2.737-.681.241,1.205,4.4-.865.269-1.915,3.475.014.624.964,1.546-.936.794-1.56-1.3.071Z" transform="translate(120.45 40.34)" fill="#20254b" stroke="#20254b" stroke-width="1" opacity="0.2"/></g><g transform="matrix(1, 0, 0, 1, -4.21, -4.8)" filter="url(#g)"><path d="M378.765.778l3.347.085,4.141,1.985,1.759.028,1.248.964,1.957.553.355.865,1.347.2,2.468,2.028,3.631-.581,2.4,2.269L405.8,8.72,408.6,7.713l1.858.4,2.383-.213,1.064.5,1.361-.936,1.716.284,4.269-.964,3.829.383,5.332,1.716,2.992-.681L435,9.528h2.17l1.844,2.936L448.171,42l-.468,8.963.411,2.652,4.879,5.971.213,4.042,2.453,6.4,4.169,2.95h0l-1.489.709-2.127-.269-1.673,1.659-.312,1.546-.808.312-1.12.085-.865-1.716-.766.156-1.333,1.432-.808-.851-.922.752-.723-.028L444.115,75.5l-1.631,1.716-1.135-.383-1.489,1.276-2.014-.425-.78.893,8.226-.227v2.2l-1.985,1.858.553,1.447-.184,2.808-1.6,1.7-.1,1.347-1.518,1.106,2.028,1.262-.78,1.447,3.3.057-1.645,1.56.865,1.3,3.177,1.858,2.156.383v2.156l-1.475.113.057.6-1.574-.355v1.064l-1.929,1.4h-4.964l.652,1.5v3.063h1.518v.908l3.12-.411.326,2.822-1.248.156.6,2.95-5.162-.567-2.2.553-.723,1.234-4.879.44-.709-.425-.752-1.829-1.22-.241V110.66l-1.049-2.482-.766-.581-2.2-.5-.6-.667v-2.822l-.61-.5.837-1.319v-1.163l-.383-.993-2.042-.425-.837-.908,1.447-1.985-3.035-2.652-1.815.681-.369,1.106-2.68,1.12-.539-1.149-1.035.4-.028,2.482-2.141,2.141L409.7,98.52l-3.914-.893-1.4-.879-.6,1.7-2.425.028-1.872-1.163-.142,2.539-1.985-1.532-3.3.113.808,3.191-.44,1.064,2.014,1.7-.539,2.68-2.17.284-9.19,7.559-.014,1.361-2.553.241.085,1.3,1.376.383.979,2.184-1.659.567-.014.964-1.12,1.631-6.524-1.135.156-1.064-2.425-2.439-.922.156-1.021-1.276.269-1.205-1.617-.964-.014-1.234-2.269,1.064-.2-.312,1.205-2.014-1.262-3.389.057-1.177-3.8-.95-2.113.567-.028,2.851-.78.369.312,1.177-3.9,1.659-1.461-3.219-.44.142-.369-.737-3.4-.61.6,3.021-1.7-.539-1.773.525-1.773-.567-2.411.411-1.39,1.135-3.432,1.361.057,3.063-5.418,1.276-.043,1.319-3.517,1.092.184,2.354.581.184,3.829-.865.652-.922,3.985-1.234h0l1.291,2.737,1.3-.071-.794,1.56-1.546.936-.624-.964-3.475-.014-.269,1.915-4.4.865-.241-1.205-2.737.681h0l-2.68-4.411-3.347.369-.2-2.056-2.014-.34.369-1.9,1.4-.326,1.8,1.347,1.815-.1.638-2.638-5.318-2.695-3.3-.241-1.205-.752-1.149.241-.5.879-1.546-.17-.057-.823,1.049-.014-.326-1.205-2.666-.624-.213,2.283-2.5-.312-1.6.964-1.5-1.489h-1.73l-1.22.766.113,2.3-1.858,2.5-1.135-.4-.78-1.716-4.68.539-2.241-2.794-4.964-.227.028-1.007-1.12-2.141-2.652-1.007-.837-6.822-1.517.043-.184,2.042-1.234-.028-.6.837-5.758,2.1-.652,1.064-2.127-.142-2.524-1.9-2.085.369-5.588-.78L258.26,104.7l.17-4.311h0l.681-.057.326-.823,1.645-1.092,1.659-4.113,1.418-1.532,1.659-1.617,2.383-.681.567-2.014,2.042-1.489,1.716.085,1.645-1.347,1.276-.468-.028-1.688.581-.752-.468-.908.6-.723-.652-1.021.156-1.291.865-.794.865-2.539-.1-1.347.525-.6.17-1.787.766-1.872-.043-.723-.553-.1.681-.695-.227-1.049.624-3.205.355-1.078.893-.652.312-1.9.964.709-.1.936,1.049-.4.752-.964-.695-1.347,1.4-.709.454-1.007,1.546-.227-.624-.879.1-.794.709.553.553-.4.482.425.667-.156.255-.34-.709-.908.6-.539,1.007.369.4-.667L290.581,54l1.191-.879.893-2.056.709.113v.851l.879.057.113-1.12.979-.3-.227,1.049.723.241,1.106-1.532,3.106-.255L301.132,49l.468-3.3.865-.61L302.423,44l.34-.241,1.645.425,1.432-1.049,1.049,1.347.908-.17.411-1.262,1.135-1.035-.723-1.376.879.241.936-.482.284-.993,2.624-.908,1.461-1.276.113-1.815.44-.709-.34-1.248,1.276-.2L318.86,31.3l.34-.709-.312-2.1,1.475-.581,2.553-2.17.227-2.269,1.5-1.631,2.142-.964.695-1.135,1.588-.681.879-.95,3.787-.241,2.34.652,1.5-.908,2.766-.2,3.29-1.829,4.1-1.135.028-.851,1.319-.652,1.844.525,2.056-3.432-.255-2.567.369-.794.695-.284.709-1.971.737-.553,4.311-.113,1.815-1.291,2.624.468,1.588-.17.709.61L370.922,1.9l2.071.383.652-.95L375.02.919l1.347.5L377.857.3Z" transform="translate(112.09 4.8)" fill="#20254b" stroke="#20254b" stroke-width="1" opacity="0.5"/></g><g transform="matrix(1, 0, 0, 1, -4.21, -4.8)" filter="url(#i)"><path d="M439.425,52.212l.482,1.177.808,7.644,2.737,4.552.837,6.013-.355,9.091,1.319,14.622-.113,9.289-.312,4.1-1.319,2.907-.284,1.659-.028,1.361.723.241.44,4.552-2.737,7.857,1.617,4.921-4.141,1.9-16.38-11.346-3.829.993-2.17,2.964-4.694,4.17-.567,2.68-4.921,10.055L403.3,147.3l-2.34,3.914-1.39,6.013.071,6.325.539,4.34.425.61.667-.113,2.227-1.957.539,2.794,2.368,2.383.184,1.39-.667,1.759.3.922,3.389,3.375,3.007,3.985,5.148,2.071h0l-4.013,5.176-1.035-.085-1.688-1.361-1.007.269-.823-.3-3.616.865-1.163-.823-.326-1.319-1.759.312-1.361,1.163-1.673-1.177-.879.128-.993-1.007-1.886-.667-1.744.17L391.632,188l-2.794-.525-2.227.3-.61-.241-.241-1.347-1.39-.284-.922,1.078-1.205-.113-1.716.5-2.042,1.688-1.6.44-1.177,1.4-3.078-1.007L370.8,190.94l-1.9-.255-1.177-.752-3.021.993-1.716,3.29-1.12-.525h0l-2.142-.057-.723.723-.028,1.049-1.149.057-.78.652-.922-.184-1.418-2.624-1.546-1.3.425-.865-2.411-2.1.2-.794-.723-.44-.241-1.517-.624-.823-1.73-1.078-2.241.511.156-1.163-.454-.411-1.078-.014-.61-.837-1.206-.17-1.418-1.447-2.014-.1-1.5.737-2.014-3.446-.255-1.943-1.049.128-1.092-1.177-.922-.142-2.439.964-.709,1.22-1.106-.581-1.319.213-4.141-2.609-2.2-.808-1.163,1.12,1.376.184-.085.794-1.56.085-2.6,1.957.78-1.532-1.276-.638-1.362-1.787-.837.043-1.276,1.007-1.163-2.283-2.567.085-1.39-.851h0l.908-1.815-.766-.454.014-1.432,1.206-.369-.014-.61,1.985-.667-.284-1.092-.709-.326.752-2.624,1.532-.284.184-.638,1.645-.142.17-1.588,1.418-.1.014-1.291,1.56-1.205,2.383.34.326-1.234,4.567-.34.085-2.439,4.113-2.014-1.6-3.319-2.34.241-2.6,1.12-1.4-.851-.2-.638-.993-.142L319.162,145l-3.46-1.12-.255-3.092-1.333-1.021-.581-1.985,1.631-.61.581.184.213-.553,1.461.468.539-2.312,1.376-1.248,3.007.78,1.5.043.255-.369.624,1.205.624-.326,2.156.1,1.3-6.907,2.34.4.227-1.744-.51-.4,1.744-3.248-.979-1.177.411-1.447,3.489-1.4-.879-3.092-3.659.993L326.962,122l-5.715-.511-1.985-7.091.879-1.39-.652-1.092.766-1.248.3-6.212,2.34-.255,2.411-2-1.049-2.794-5.276.581h0l-3.985,1.234-.652.922-3.829.865-.581-.184-.184-2.354,3.517-1.092.043-1.319,5.418-1.276-.057-3.063,3.432-1.361,1.39-1.135,2.411-.411,1.773.567,1.773-.525,1.7.539-.6-3.021,3.4.61.369.737.44-.142,1.461,3.219,3.9-1.659-.312-1.177.78-.369.028-2.851,2.113-.567,3.8.95-.057,1.177,1.262,3.389-1.205,2.014.2.312L349,92.957l.014,1.234,1.617.964-.269,1.205,1.021,1.276.922-.156,2.425,2.439-.156,1.064,6.524,1.135,1.12-1.631.014-.964,1.659-.567-.979-2.184-1.376-.383-.085-1.3,2.553-.241.014-1.361,9.19-7.559,2.17-.284.539-2.68-2.014-1.7.44-1.064L373.536,77l3.3-.113,1.985,1.532.142-2.539,1.872,1.163,2.425-.028.6-1.7,1.4.879,3.914.893,1.461,1.929,2.142-2.141.028-2.482,1.035-.4.539,1.149,2.68-1.12.369-1.106,1.815-.681,3.035,2.652-1.447,1.985.837.908,2.042.425.383.993v1.163l-.837,1.319.61.5V85l.6.667,2.2.5.766.581,1.049,2.482V92.39l1.22.241.752,1.829.709.425,4.879-.44.723-1.234,2.2-.553,5.162.567-.6-2.95,1.248-.156-.326-2.822-3.12.411V86.8h-1.517V83.739l-.652-1.5h4.964l1.929-1.4V79.768l1.574.355-.057-.6,1.475-.113V77.257l-2.156-.383-3.177-1.858-.865-1.3,1.645-1.56-3.3-.057.78-1.447-2.028-1.262,1.518-1.106.1-1.347,1.6-1.7.184-2.808-.553-1.447,1.985-1.858v-2.2l-8.226.227.78-.893,2.014.425,1.489-1.276,1.135.383L423.6,54.07l2.766,1.262.723.028.922-.752.808.851,1.333-1.432.766-.156.865,1.716,1.12-.085.808-.312.312-1.546,1.673-1.659,2.127.269,1.489-.709h0Z" transform="translate(132.61 26.23)" fill="#20254b" stroke="#20254b" stroke-width="1" opacity="0.6"/></g><g transform="matrix(1, 0, 0, 1, -4.21, -4.8)" filter="url(#k)"><path d="M134.324,78.531l1.021.879,1.106.1.95,1.035.879-.511.581.709,1.447.3,1.035,2.028,3.248,2.212,1.432,2.51.723,2.5,1.035.028.1.709-.652.78.255.865,1.205.539-.014,1.22,1.844,1.347-.752.95.922.425-.113.61.794,1.8,1.56.624.156,1.248.794.085-.213,1.021.539.184.879-.6.411.3-.17.667-1.021.284-.411,1.631.1.5,1.276.794.893,1.617-1.432,1.8,1.135.085-.241,2.113,1.574,1.659.44,1.7.837.553-.425,1.716,1.489-.851.043,2.085.837.837-.3,1.5,1.333,1.787-.78,1.943.667,1.106-.284,1.276.454.681-.539,1.135.44.567.723.028.057,1.007-1.4,1.39-.411,2.326-.837,1.6-.908.425-2.141,3.148-.454,1.39-.78.355-.766,1.177-.865.128-.383,1.291-.34,2.5,1.049,3.631-.014,2.028-.681,1.347.695,1.432-.071,2.51.766.695-.085.823,1.39.823.184,2.141.808-1.3,1.985-.553,1.106-1.035.667.071.369-.695,2.709-1.049,1.517.581,1.177-.085,1.73,1.688,2.056.113,2.425.893,2.695-1.035,2.014-.284,1.177.4,1.56-.979,1.858-.085,1.078.014,3.645,1.461,1.092-.567,1.248-.014,1.475.766,2.68-.213,3.077-2.709.071-2.836-.511-.865.3-.766,1.205-.823,5.12.241,3.517-1.517,1.205-2.141,2.978-3.035-.028-.893.667-.539.737-3.049,1.262-.752.865-1.149,4.056-1.205-.043-1.262,1.333-.652-.128-.808,1.12-1.12,1.163-.085.61-.766,2.609.922.6-.383.511-.964.184-2.113.893.2.979-1.546h0l2.255.128.3,12.182-.454.156-.425,1.049.581,4.893.312.425,1.319.113,3.6-.241.61,1.291,2.085-.128.6.355.511,1.4.525-.879.425.057,1.886,1.73,1.049.369-1.475,3.347,1.262,1.886-1.3.78-.17,1.645,1.049,2.127.142,1.985,1.56,1.915-1.12.667-1.588.142-.5,3.758.2,1.659,1.291,2.4,2.411-.667.411,1.276,1.376.837,2.737,3.829,3.148.17,1.4.482,2.624,2.4,1.39-.539,1.262,1.376-.539,1.361,4.595.028,1.673,1.617,3.744,1.588.411-.028,1.574-2.723,2.851.6,1.276-.936-.17-.681-1.333-.255,1.22-2.085,1.915.752,1.347-.028L276.725,180l.823-1.56,2.737,1.844-1.078,3.063-.269,6.779,2.255.794-.936,4.269,1.234,1.191,11.4-2.6.837,1.432-.071,4.07-2.964,3.432.624,1.078.652.5.766-.355,1.985,2.1-1.191,2.539.95.1,2.141,2.212,1.191-.567.851-2.028,1.631-1.262.525-1.787-.383-1.858,1.035-1.262.184-.908,1.191-.4.567-1.149-.184-1.844.681-1.021-.312-1.333-.723-.383-.4-1.361.681-1.688,2.1-.1.213-.936.5-.241.227,1.418.638.511-.383.936.227.695,8.566-.085.581.355-6.921,8.367-.61.113,4.056,8,.78-.156,1.007-.936h0l.979,1.716-1.915,5.148-1.092.213-.284.964-1.376.1.794,1.716.638.085-1.177,5.162-1.716,1.929.383.695-.893,4.85,1.943.709L290.482,275.8l.241,1.56,2.836,4.141.823.355.865-.184.61,1.135,1.929.4,1.73,2.368,2.34.581,1.035,3.035,4.255,1.191,1.064,3.021,2.468,4.567,1.759,1.149,1.716,2.95,1.617.723.553,2.1,1.475,1.432,1.858,1.064,1.39,2.425,3.077,1.9,1.376,2.156,3.29.255,2.808,2.439h0l.553,7.318,2.652.34-.936,1.773-1.177.468-.5.879,1.588,1.39.269,1.9-1.929,2.283.652,1.191-.851,1.6-1.049.128.837,1.035-1.361,2.2-.993.028-.681.667.014,2.354-1.078.723-4.964-1.12-5.928,3.248-2.978-.014-1.418,1.517-2.865.737-.142,1.929-1.291-.709-1.3,1.617-3.389.525-2-.652-2.822.4-.085,2.865-1.517.752.312.425-.695,2.453.355,1.248-.553,5.276-7.077.269v.709l-1.8,1.759-3.928-1.39-.567.709.383,1.6h0l-3.092.17-1.56-2.836.638-.879-3.049.043-.581,2.737-1.333.61-.624,1.532-1.092.043-.709-1.815-1.6-.525,1.262-.979-.057-.879-3.3-1.432-.383-1.432-3.7.043-.936-.468-.567.227-.766,1.461-.908-.071-1.078.553-4.014-.78-.312,1.205-2.553.142-2.1,1.276-.638,2.695-1.3,1.532.014,1.191-5.3,4.68-1.432-2.156.567-1.787-3.262-1.475-2.978.908-1.106-.5-.411-1.418-2.808.922-1.333-2.028-3.531.667-2.3-.737,1.007-3.248-1.673-.893-.085-1.432-2.808-.581-6.51-3.744-.936.61-.482,2.539-3.007,5.7-.213,4.425-3.262-1.418.6,2.227-1.078.993,1.007,2.042-.539,1.716,1.744,1.844-1.447,3.148-.709-2.141-2.3,1.064-.128,3.9-2.468.964-.468,1.773-2.51.468-3.248-1.3-.1-.851-1.319-.6-1.915,1.929-2.141-1.815-2.808.993.355,3.531-2.2.893-1.021-.241-1.6,1.815-.837-.468-2.581.979-1.092-.284-.681,2.227-1.376,1.248-1.673.525-1.8,4.836.652,1.844-5.659,1.844-1.447-.808L161.525,405l-1.546,1.276-.071,1.106.709.808.3,3.049-.865,2.893-2.34.964-.567,1.276-2.482-.284-2,.638-1.475-2.283-2.368,2.042-2.609.241-1.475-1.673-1.276.213-.142-1.957-1.12-.44-1.489-2.482-3.517-1.475.071-3.9-1.971-1.886-2.2-8.07-.014-2.127,1.631.808,1.517-1.56-.269-1.234,2.368-2.383.936.511-.511-3.049-.922-.312.028-1.361-1.078-.695-2.283,1.631-.78,1.6-1.574-.043-.667,2.056-3.616,3.319-2.695.44-.284-.652-1.631-.3-.085,1.092L121.418,394l-1.12-.709-1.078,1.007.61,1.191-1.773.723-1.049-1.844-.837.667.014,2.3-1.376,2.482L116,402.292l-.17.808-2.78,1.8-1.73-3.546.695-4.893-1.971-3.73-.908-.851-.525-3.163,3.574-2.028-.823-3.744.312-3.361-1.588-.34-1.376-1.574-1.177.482-.482-.624-1.361-.113-1.049-2.34-1.815-.61.879-3.943-2.808,2.737-.2-.61-.837-.355-.979.5L97.1,371.616l-2.184-.17.071-2.6,1.773-1.73-.227-1.347.511-.4-1.73-4.411.837-.014-.113-2.68.624-.525-.581-1.078-.681-.071.794-1.716-2.51-.78,1.078-2.071-.425-3.12-1.588-1.617,1.39-1.957-2.1-.78-.908-2.212.355-4.666-1.844-3.3.44-2.283,2.539-2.028-3.744-2.156,3.29-1.049-.581-5.531-3.333-.4-2.95-2.6.539-1.6-1.461-2.283-3.645-.808L77.3,308.761l-2.737.737.028,2.638.936,2.992-4.552-5.4.681,2.6-1.163,2.312-.709,3.815-3.7,6.382-1.688.085-1.7,1.4L59.726,323.7l-.979-.326-2.51.511-.156,5.375-4.283.511L53.5,333l-3.787,3.46.709,3.9-2.5-1.021h0l-2.695-6.311-2.567-3.46-1.3-2.51-1.915-5.262-3.262-4.879.184-1.319-1.049-1.163-3.8-7.247.014-.61L30.2,304.762l-.411-3.234-1.333-2.808-.1-1.276-1.092-1.6-1.659-6.58-1.276-2.283-1.291-4.141-1.617-8.509-1.276-1.716L19.9,270.3l-1.688-4.609-.17-1.56L15.563,260.7l-.241-1.8-1.078-1.5.184-1.12-1.106-3.943L10.912,250.3l-1.064-1.645.1-.964-1.191-2.212L5.579,243l-1.432-4.24.241-1.631-1.319-.922L1.3,233.881l-1.007-.539.553-2.227.511-.766,2.893-.4L5.735,229l.255-1.021.808-.78,1.333-.667.61.071.454,1.064.993-.085.837-1.532.823-.567-.184-2.071,1.532-1.333-2.17-2.907.17-1.163.652-.383.95.709.723-.142.113-1.248-.752-.979,1.744-.227-.681-1.829,1.5.468.539-.312-.043-3.489.6-.737,2.014.383.6-.737,1.135.6.794-.936,2.212-.695,1.248,1.007.567,1.12,2.028.993-.284,3.815.851,1.418.823.61.936-.581,1.163.142,1.078-.737,1.234.766,1.22,2.156.014,1.546,1.092,1.6-.184,1.673-.681.979-1.262.085-.78,1.447.241,1.021,1.177,1.078.326,2.085,1.829.057-.638,6.24,2.836-1.021,2.241.241.766-.539,1.092.383.44,2.453,1.361.6.681.014,1.319-.993.823.61.794-.695,1.177.667,4.935.128,2.851,1.929,2.383,2.822,1.12-.17,1.475.908,1.418.014.624.709.823-.156.5-.624,1.234.156.624-.709,2.014.284,1.106-.326.78.638,1.971.2,1.489-.6,1.475.213,2-1.361,2.482-.6,1.787.34,2.1-.567,7.97.979,1.376.893.879,2.127.837-.2,1.191,1.021,1.7.624,2.269-.567,1.333-.723,1.248-1.475,1.829-.071v-.893l-1.205-.723-.695-2.056.879-2.709,1.135-.61,1.7.369,2.312-.213,1.985-1.035L112,235.086l.482-3.021,1.418-1.135.667-1.915,2.255-.652,2.539.142,1.546-1.333,2.68.837.667-.355.567-1.333,1.163-1.021,1.248.255,2.227-.823,1.092.17.128-150.7,2.5,3.021.553.028.6,1.276Z" transform="translate(4.21 35.7)" fill="#1c1d3d" opacity="0.9"/></g><g transform="matrix(1, 0, 0, 1, -4.21, -4.8)" filter="url(#m)"><path d="M443.01,133.385l.241.652,2.468,1.248,1.617-1.149,2.014.723,3.716.511,16.011.255,2.609-.425-.383,1.39-.865.383-.4,1.361.269.652.979-2.156-1.191,7.531-6.339,17.529.128,1.588-2.851,11.161-.454,3.233.184,1.7-1.475,8.906-4.822,9.658.142,1.73L453.646,204l-1.475,2.269L439.266,218.93l-9.076,3.56-4.708,5.12-2.581,3.616-4.113,3.9-1.149,1.773-3.205,3.262-5.531,7.772-4.779,8.722-.709,2.255.312,1.376.61.213-.028.44-6.467,7.545-9.544,19.3-8.41,13.813-3.248,4.184L373.688,311l-1.149.893h0l-.823-.667-.411-1.688-1.106-.695.17-1.319-.737-.709.355-1.106-.269-.837-.908-.922-.964-.085-.482-1.815-1.517-.142-.5-.709-1.021.269-.34-1.177-.851-.34.014-1.064-1.262.482-.964-.511-.539-.667-1.759-.808-.525-1.418-1.262-.1-.539.823-.369-.539-2.411-.6-.553-.61-2.17.44-.893-.922-1.319-.355-2.766-1.943-1.915.851h-2.227l-.51.695-.709.128-2.524-1.248-6.524-1.688.1-2.241-2.822-1.39-.78.3-.425,2.751-.709.1-3.29-.667-1.517-2.3-1.688-.269-.709-1.588.908-1.744L319.3,281.6l1.3-3.177,3.177,1.291.993-2.6,1.7.454.5-1.362,1.4-.879-.511-1.3,2.014-1.205,1.418.156,1.659-2.17-.028-1.56-1.447-.908-1.886-2.425h0l2.255-1.7.879.241.468-1.177,1.5-.4.184-.5-.652-2.113-.964-.964.964-3.787-.241-1.376,1.021-.922.213-1.347.993-.2,1.106-.893,2.014-.355-.014-1.645,1.376-.5-.993-.681.028-3.12,1.035-.454.5-.922,2.964-1.092,1.376-3.546-.865-1.007.128-1.489-1.3-1.7-.652-2.1-1.829-2.212.17-1.532-.454-.752-1.574-.511-1.12.482-1.205-1.333-.3-1.135-2-.808-.979-.922-2.141-.709-.3-1.546-1.645-1.106-1.035.2-1.361-1.56-1.744-3.389-1.73-1.5h0l1.078-3.333,1.262-1.064-.014-1.631,1.489-1.659,3.758-1.22,2.283.284.723-.723,1.418.028.3-.553-.383-1.56,1.376-1.787,2.709-.709,1.546-1.9,2.609-1.191,2.978-3.886,3.716-.581.865-2.212,1.673-1.205.128-2.425-1.546-1.631-.213-1.191.454-1.5,1.135-1.163-.057-2.453,2.127-4.1-.78-1.489.2-2.539-.908-1.716v-.766l3.6-2.68-.51-2.056-1.957-.865.383-1.4-.454-.411,2.184-.979h0l1.12.525,1.716-3.3,3.021-.979,1.177.737,1.9.269,1.56-1.049,3.361,1.007,1.163-1.4,1.617-.44,2.028-1.688,1.716-.5,1.206.113.922-1.078,1.39.284.241,1.347.61.227,2.227-.3,2.794.539,2.184-1.56,1.744-.17,1.886.681.993,1.007.879-.142,1.659,1.177,1.376-1.163,1.759-.326.326,1.333,1.149.823,3.616-.865.823.3,1.007-.269,1.688,1.347,1.049.085,4.013-5.176h0l7.8,2.921,17.415.057.284-10.523,1.135-10.282,3.177-.184.44.44Z" transform="translate(137.62 58.27)" fill="#20254b" stroke="#20254b" stroke-width="1" opacity="0.7"/></g><g transform="matrix(1, 0, 0, 1, -4.21, -4.8)" filter="url(#o)"><path d="M299.3,70.875l-.17,4.311,1.361,2.737,5.588.78,2.085-.369,2.524,1.9,2.127.142.652-1.064,5.758-2.1.6-.837,1.234.028.184-2.042,1.517-.043.837,6.822,2.652,1.007,1.12,2.141-.028,1.007,4.964.227,2.241,2.794,4.68-.539L340,89.5l1.135.4L343,87.4l-.113-2.3,1.22-.766h1.73l1.5,1.489,1.6-.964,2.5.312.213-2.283,2.666.624.326,1.205-1.049.014.057.823,1.546.17.5-.879,1.149-.241,1.205.752,3.3.241,5.318,2.695-.638,2.638-1.815.1-1.8-1.347-1.4.326-.369,1.9,2.014.34.2,2.056,3.347-.369,2.68,4.411h0v3.914l-2.964.922-1.957-.128-.766.78-.808.014-.34-1.22.979-.326-.014-.567-1.163-.2-1.631.652,1.248,5.46-1.645,1.177-.482,1.475-1.078.709-2.95.454,1.645,4.155-1.064.383.581,2.141-.964.61-.014.865-1.688-.184v.794l-2.921.383-3.12,1.035-.142-1.617-1.886,1.007-1.248-1.73-.425-1.659-6.41,3.475.085,2.808-1.759,7.318-2.127.312-.113,1.546-2.439-.284,1.291,5.616-2.921,1.943-2.2,2.085,1.56,2.879.014,1.915,4.864-1.872-.34-1.049,5.162-1.149.667.539.44,1.22,3.517-.128-.525,1.688-.369.1-.723,3.432-.851.2,1.276,1.6-1.064,5.886h0l-.865.142-.014,1.929-1.532,2.411-1.177.269-.922,1.064-.482.043-3.12-2.836-1.205.766L328.97,165.2l-.993.4-.4-.156.284-1.064-.525-.61-.709.44-1.8-.326-2.212.34-2.468-.922-.922-1.645-.511-.043-.553.581.17,2.6-.34.553-2.056-1.915-1.347,1.248-.808-.5-2.085,1.092-1.333,1.22-.369,1.3-.44.1-.553-.865-1.588.355-1.517,1.631-.071,2.212-2.056-.255-1.092,1.73-.5-.085-.865.851-1.291-.128-.454.411.468,1.447,2.468,2.652.014,2.127-1.163.44-.411,1.234,2.468,1.517-.667.213-1.829-.425-1.021.411-2.411-.383-1.007,1.347-1.064-.525-1.276.4-1.333,1.844.043,1.5-1.092.3-4.283,4.141-1.135,2.34.695,1.3-.142.681-1.319.34-.525-.326-.808-3.248-2.666-.723-2.2.113-1.418-1.716-.908.128-4.581,2.609-.737,1.262-2.851-.553-1.333,1.234-1.574-.128-3.077,1.234-2.113,1.617-.624,1.092-2.765.681-1.049,1.461.44.709-.369.794-2.4,2.184-1.631.269-1.22,1.929.3,1.135-.964,1.035-.34,1.092-3.092.837h0l-1.007.936-.78.156-4.056-8,.61-.113,6.935-8.367-.581-.355-8.566.085-.227-.695.4-.922-.638-.525-.227-1.4-.5.241-.213.922-2.113.1-.681,1.688.411,1.361.723.383.312,1.333-.681,1.021.184,1.844-.581,1.149-1.191.4-.184.908-1.035,1.262.4,1.872-.525,1.787-1.631,1.248-.851,2.028-1.191.567-2.141-2.212-.95-.1,1.191-2.539-1.985-2.1-.766.369-.652-.5-.624-1.092,2.964-3.418.071-4.07-.837-1.447-11.4,2.609-1.234-1.205.936-4.269-2.255-.794.269-6.779,1.078-3.063-2.737-1.844-.823,1.56.681,2.851-1.347.028-1.915-.752-1.22,2.085,1.333.255.156.667-1.276.95-2.851-.6-1.574,2.709-.411.028-3.744-1.588-1.673-1.617-4.581-.028.525-1.361-1.262-1.376-1.39.539-2.609-2.4-1.4-.482-3.148-.17-2.737-3.829-1.376-.837-.411-1.276-2.411.667-1.291-2.4-.2-1.659.5-3.758,1.588-.142,1.12-.667-1.574-1.915-.142-1.985-1.049-2.141.17-1.631,1.291-.78-1.262-1.886,1.489-3.347-1.049-.369-1.886-1.744-.411-.057-.525.879-.511-1.4-.6-.34-2.085.113-.61-1.291-3.588.241-1.319-.113-.312-.425-.581-4.893.425-1.064.468-.156-.3-12.168-2.269-.128h0l.227-.723,1.163-.78.071-2.184,1.929-.113.184-3.092.723-.865-1.149-.893.113-.5.723-.241.043-.964,1.376-.837.241-.61-1.546-1.007.695-.553.539-2.056.95-.369.794-1.163.241-1.262-.752-.454.043-.752,1.546-.851-1.3-1.205,1.631-3.191-.5-.652.851-.468,1.106.312-.468-.681.837-2.056,2.141-1.517.284-1.7,1.106-.369.113-1.461.78.61,1.106-.752-.312,1.106.808.454.652-.865.737-.255.766.411,2.34-1.56,1.5.213,1.461-.34.61.766.667-.383.355.383,1.262-.241.454.652,1.716.454.979-1.432.794.014-.269.709,1.546,1.22-.043,1.106,1.177-.4,2.227,2.17.794-.482.312.511-.3.355.667.4.284.794.737-.213.142-.5.468,1.234,1.22.468.567-.454,1.106.964.454,1.4,2.028.61-.5.567.17.5.823.043.355,1.049,1.248.284,1.106,1.915,1.064.411,1.234-.823,1.418.284.071,1.135,1.8.113.2-.993,2.567.085.808-.808.043.752,1.262-.34,2.567,3.219.865-.057-.255.893,1.617-.3.043.837,1.886,1.205,1.872-.553.737-.624,7.644,3.418,1.291.17,1.673-.638,2.354.723,2.2-.624,1.7.128.539-.936,1.291-.993,1.347-.411.865-1.191,1.291-.2,2.78,1.475,8.084.4,9.091-5.886,2.2-4.779-.057-1.39,1.688-4.326.468-3.347,1.163-1.376,4.538-12.665.78-.78.241-2.4-.936-2.014.113-2.028,1.078-.043,1.319-1.319,3.389-.113Z" transform="translate(68.39 34.31)" fill="#20254b" stroke="#20254b" stroke-width="1" opacity="0.4"/></g><g transform="matrix(1, 0, 0, 1, -4.21, -4.8)" filter="url(#q)"><path d="M247.882,393.3l-1.773,1.092-2.567.085-1.291.581-1.546,1.22.128,2.34-.383.3L237,398.7l-1.7-.6-6.24-.071-1.971-.61-1.574.766-1.631-1.064-4.255-1.361-1.064-.284-.383.269-6.51-1.645h-.709l-2.907,2.5-.709-.128-.908.482L202,396.547l-3.063.284-2.879,1.177-1.319,1.432-.454,2.071,1.858,1.092-1.773.752-3.744.2-2.978,1.588-.723,1.532.142.525,1.163.44-1.432.78-.128.61.44.326-1.021.227-.695.851-2.071.78-4.34.624-5.843-1.73-3.389.511-.737.425.227.709-.539-.057-.78.908-3.319,1.248-6.467-2.609-4.708-.766-3.531.326-1.9,1.135-.085.553.752,1.234-.213.993-.681.652-6.793-1.149-4.737.922-2.014.851-1.886,1.631-.993,2.071-2.071.865-.61.851-3.205,1.744-.355,1.645-2.439.369-3.021,1.688-1.22,1.588.014,1.234.6.34-.255.369-1.078.085-.61.808-.865.113-1.262-.865-.78.028-.312-.752-1.886-1.447-6.793-.184-.638.61.17.284-1.432.4-.383-.383.5-.34-.326-.908-.865.156-.425-1.22-1.8-.808-.851-1.759-2.851-.823-.539-1.4-.823-.723L90.476,422.4l.5-.851.922-.241.922-2.269.908-.667-.893-2.907-1.688-2.411.539-.411,1.021.638.383-.511.95-.142-.2-.2-2.439-.043-.709.355-.893-.326-1.886,1.333-1.276-.695-2.312-.241-.284-.511.425-.425-.993-1.291,1.149-.667-.255-.213.553-1.248-.752.241-.979,1.078.2.737-2.17-1.135-1.56.227-1.021.794-2.071-.3-.525.794-1.262-.184-.014.794-.865-.525-.425.5-.667-1.787.78-.411-.681-1.844,1.418-1.4.17-.667-1.39-2.737,1.844-1.4L72.933,398.7l-1.645-.893-2.056-.369-3.716.128L61.2,398.632l-2.071,1.5-.482,2.368,1.149.567.808,1.829-.638,3.4.454,1.035.936.78-.879.043-.766-.964-1.347-.652-1.376-2.666-.355-2.978-.709-.823-.567.043-.638-1.3,1.262-1.092-.113-1.418.681-1.248-.2-.5-.5-.241-.383.681-1.191-1.035.879-.652.6-1.645.879-.6-.057-1.5,1.064-1.773,1.149-.028.383.95,1.191-.553.581-1.333-.085-1.574-1.432-2.921-.326-3.616-1.489-2.95-.794-.255-.667-1.716-1.844-.652.284-2.5-1.078-2.312L51.759,368.4l-3.4-2.524.553-.567-.057-.681-2.283-4.255-3.262-3.489-1.447-.553.128-.709-.823-.667.241-.511.454.156.355-1.39.581.156.695,1.12-.043,1.106.652.3-.255.709,1.035.468,1.432,2.042.652.043.581-.581-.043-.34-.454.383-1.021-.752.284-1.234-2.227-1.815.454-2.326-.468-1.092-1.418-1.22-.667-.043-.979.5-.284,1.39-.908.468-.78-.312.34-1.205-1.149-1.049.425-.681.028-.709-.383-.1.454-.3-.014-.638-.269-.709-.681-.3.865-2.127-1.418-1.673,2.212-1.163-.269-2.439.879-.737.014-.539,1.12.369.553-.993.652.142-.128,1.064,1.461.624-.184.4,1.517,1.475,2.709-.3,4.368-4.354,2.113-4,.752-2.439.34-3.063-.794-6.141.865-.1.312-1.475-1.617-7.077-.128-.993.581-.425.014-.553-1.815-5.7.539-1.829-1.6-3.191-.411-3.134L47.8,290.593l-.539-1.7-8-9.956-.794-1.291.057-1.744L38,275.036l-2.624-2.6-1.489-2.283h0l2.5,1.021-.709-3.9,3.787-3.46-1.7-3.233,4.283-.511L42.2,254.7l2.51-.511.979.326,2.964,2.624,1.688-1.39,1.688-.085,3.7-6.382.709-3.815,1.163-2.312-.681-2.6,4.552,5.4-.936-2.992-.028-2.638,2.737-.737,3.432,4.879,3.645.808,1.461,2.283-.539,1.6,2.95,2.6,3.333.4.581,5.531-3.29,1.049,3.744,2.156-2.539,2.028-.44,2.283,1.858,3.3-.355,4.666L78,275.39l2.1.78-1.39,1.957,1.588,1.617.425,3.12-1.078,2.071,2.51.78-.794,1.716.681.071.581,1.078L82,289.1l.113,2.68-.837.014L83,296.21l-.511.4.227,1.347-1.773,1.73-.071,2.6,2.184.17,1.787,1.177.979-.5.837.355.2.61,2.808-2.737-.879,3.943,1.815.61,1.049,2.34,1.361.113.482.624,1.177-.482,1.376,1.574,1.517.326-.312,3.361.823,3.744L94.5,319.539l.525,3.163.908.851,1.971,3.73-.695,4.893,1.73,3.546,2.78-1.8.17-.808-1.191-2.482,1.376-2.482-.014-2.3.837-.667,1.049,1.844,1.773-.723-.61-1.191,1.078-1.007,1.12.709,1.744-1.191.085-1.092,1.631.3.284.652,2.695-.44,3.616-3.319.667-2.056,1.574.043.78-1.6,2.283-1.631,1.078.695-.028,1.361.922.312.511,3.049-.936-.511-2.368,2.383.269,1.234-1.517,1.56-1.631-.808.014,2.127,2.2,8.07,1.971,1.886-.071,3.9,3.517,1.475,1.489,2.482,1.12.44.142,1.957,1.276-.213,1.475,1.673,2.609-.241,2.368-2.042,1.475,2.283,2-.638,2.482.284.567-1.276,2.34-.964.865-2.893-.312-3.049-.709-.808.071-1.106,1.546-1.276,4.808-1.319,1.447.808,5.659-1.844-.652-1.844,1.8-4.836,1.673-.525,1.376-1.248.681-2.227,1.092.284,2.581-.979.837.468,1.6-1.815,1.021.241,2.2-.893-.355-3.531,2.808-.993,2.141,1.815,1.915-1.929,1.319.6.1.851,3.248,1.3,2.51-.468.468-1.773,2.468-.964.128-3.9,2.3-1.064.709,2.142,1.447-3.148-1.744-1.844.539-1.716-1.007-2.042,1.078-.993-.6-2.227,3.262,1.418.213-4.425,3.007-5.7.482-2.539.936-.61,6.51,3.744,2.808.581.085,1.432,1.673.893-1.007,3.248,2.3.737,3.531-.667,1.333,2.028,2.808-.922.411,1.418,1.106.5,2.978-.908,3.262,1.475-.567,1.787,1.432,2.156,5.3-4.68-.014-1.191,1.3-1.532.638-2.695,2.1-1.276,2.553-.142.312-1.206,4.014.78,1.078-.553.908.071.766-1.461.567-.227.936.468,3.7-.043.383,1.432,3.3,1.432.057.879-1.262.979,1.6.525.709,1.815,1.092-.043.624-1.532,1.333-.61.581-2.737,3.049-.043-.638.879,1.56,2.836,3.092-.17h0l.709,1.234-.78.028.2,1.22-.908-.113-1.035,2.51,2-.355,1.475,1.12-.355.468.823.667-1.631,2.439-1.56-.369-.638.979.766.425.028,1.049-1.432.113.128,1.588,1.12.1-.014,1.376-1.659,1.347-1.773-.241.17,1.064-5.7,3.092-1.673-.312-.638-1.5-2.156-1.191-.6.808-3.007,1.73-.823,2.312.979,1.092-.44.851-7.857-.227-1.56,2.2-2.4-1.064-.482,1.078-3.829,1.971.865,1.574-.255,2.113,1.588,1.064.95,4.212-.638.723-1.021.3,2.695,1.844.454,2.4,1.333.709-.255,2.524-3.758-1.177-3.063-.44-2.014,2.269-2.283-3.078,1.092,3.886-.5.794-2.765-.085-.383,1.035-2,1.872.482,1.957-1.291,1.177,1.035,1.177-.284,2.2-2.056,2-1.361,3.375-.709.326-2.255,4.169-1.333.227.1,2.227.709,1.262,5.432.567,5.233-1.361.61.567,2.255-.482,6.453.213,1.149,1.829,5.758.113.355.808,3.134,1.574.3,3.319,2.652,2.34-.2,1.688-2.978.312-1.035-.667-.823,1.4-3.9,1.475-.057,1.532-1.645,1.447,3.631.695,1.049-.936,1.744.255.128,2.042,5.219,1.957-2.184,2.893.44,1.957-2.581-.17Z" transform="translate(18.26 104.87)" fill="#20254b" stroke="#20254b" stroke-width="1"/></g><g transform="translate(410.149 152.043)"><g transform="matrix(1, 0, 0, 1, -414.36, -156.84)" filter="url(#s)"><path d="M14.182,0A14.182,14.182,0,1,1,0,14.182,14.182,14.182,0,0,1,14.182,0Z" transform="translate(414.36 156.84)" fill="#007a4d"/></g><g transform="matrix(1, 0, 0, 1, -414.36, -156.84)" filter="url(#u)"><text transform="translate(428.5 176.09)" fill="#fff" font-size="12" font-family="Roboto-Black, Roboto" font-weight="800"><tspan x="-7.995" y="0">GP</tspan></text></g></g><g transform="translate(117.149 463.043)"><g transform="matrix(1, 0, 0, 1, -121.36, -467.84)" filter="url(#w)"><path d="M14.182,0A14.182,14.182,0,1,1,0,14.182,14.182,14.182,0,0,1,14.182,0Z" transform="translate(121.36 467.84)" fill="#002395"/></g><g transform="matrix(1, 0, 0, 1, -121.36, -467.84)" filter="url(#y)"><text transform="translate(135.5 487.09)" fill="#fff" font-size="12" font-family="Roboto-Black, Roboto" font-weight="800"><tspan x="-9.152" y="0">WC</tspan></text></g></g><g transform="translate(354.149 402.043)"><g transform="matrix(1, 0, 0, 1, -358.36, -406.84)" filter="url(#aa)"><path d="M14.182,0A14.182,14.182,0,1,1,0,14.182,14.182,14.182,0,0,1,14.182,0Z" transform="translate(358.36 406.84)" fill="#de3831"/></g><g transform="matrix(1, 0, 0, 1, -358.36, -406.84)" filter="url(#ac)"><text transform="translate(372.5 426.09)" fill="#fff" font-size="12" font-family="Roboto-Black, Roboto" font-weight="800"><tspan x="-7.295" y="0">EC</tspan></text></g></g><g transform="translate(321.149 165.043)"><g transform="matrix(1, 0, 0, 1, -325.36, -169.84)" filter="url(#ae)"><path d="M14.182,0A14.182,14.182,0,1,1,0,14.182,14.182,14.182,0,0,1,14.182,0Z" transform="translate(325.36 169.84)" fill="#fff"/></g><g transform="matrix(1, 0, 0, 1, -325.36, -169.84)" filter="url(#ag)"><text transform="translate(339.5 189.09)" fill="#20254b" font-size="12" font-family="Roboto-Black, Roboto" font-weight="800"><tspan x="-9.428" y="0">NW</tspan></text></g></g><g transform="translate(181.149 301.043)"><g transform="matrix(1, 0, 0, 1, -185.36, -305.84)" filter="url(#ai)"><path d="M14.182,0A14.182,14.182,0,1,1,0,14.182,14.182,14.182,0,0,1,14.182,0Z" transform="translate(185.36 305.84)" fill="#fff"/></g><g transform="matrix(1, 0, 0, 1, -185.36, -305.84)" filter="url(#ak)"><text transform="translate(199.5 325.09)" fill="#20254b" font-size="12" font-family="Roboto-Black, Roboto" font-weight="800"><tspan x="-8.15" y="0">NC</tspan></text></g></g><g transform="translate(484.149 143.043)"><g transform="matrix(1, 0, 0, 1, -488.36, -147.84)" filter="url(#am)"><path d="M14.182,0A14.182,14.182,0,1,1,0,14.182,14.182,14.182,0,0,1,14.182,0Z" transform="translate(488.36 147.84)" fill="#fff"/></g><g transform="matrix(1, 0, 0, 1, -488.36, -147.84)" filter="url(#ao)"><text transform="translate(502.5 167.09)" fill="#20254b" font-size="12" font-family="Roboto-Black, Roboto" font-weight="800"><tspan x="-9.164" y="0">MP</tspan></text></g></g><g transform="translate(457.149 45.043)"><g transform="matrix(1, 0, 0, 1, -461.36, -49.84)" filter="url(#aq)"><path d="M14.182,0A14.182,14.182,0,1,1,0,14.182,14.182,14.182,0,0,1,14.182,0Z" transform="translate(461.36 49.84)" fill="#fff"/></g><g transform="matrix(1, 0, 0, 1, -461.36, -49.84)" filter="url(#as)"><text transform="translate(475.5 69.09)" fill="#20254b" font-size="12" font-family="Roboto-Black, Roboto" font-weight="800"><tspan x="-7.157" y="0">LP</tspan></text></g></g><g transform="translate(496.149 255.043)"><g transform="matrix(1, 0, 0, 1, -500.36, -259.84)" filter="url(#au)"><path d="M14.182,0A14.182,14.182,0,1,1,0,14.182,14.182,14.182,0,0,1,14.182,0Z" transform="translate(500.36 259.84)" fill="#ffb612"/></g><g transform="matrix(1, 0, 0, 1, -500.36, -259.84)" filter="url(#aw)"><text transform="translate(514.5 279.09)" fill="#fff" font-size="12" font-family="Roboto-Black, Roboto" font-weight="800"><tspan x="-11.71" y="0">KZN</tspan></text></g></g><g transform="translate(367.149 237.043)"><g transform="matrix(1, 0, 0, 1, -371.36, -241.84)" filter="url(#ay)"><path d="M14.182,0A14.182,14.182,0,1,1,0,14.182,14.182,14.182,0,0,1,14.182,0Z" transform="translate(371.36 241.84)" fill="#fff"/></g><g transform="matrix(1, 0, 0, 1, -371.36, -241.84)" filter="url(#ba)"><text transform="translate(385.5 261.09)" fill="#20254b" font-size="12" font-family="Roboto-Black, Roboto" font-weight="800"><tspan x="-7.037" y="0">FS</tspan></text></g></g></g></svg>